<svg xmlns="http://www.w3.org/2000/svg" xmlns:xlink="http://www.w3.org/1999/xlink" width="2000" zoomAndPan="magnify" viewBox="0 0 1500 1499.999933" height="2000" preserveAspectRatio="xMidYMid meet" version="1.0"><defs><g/><clipPath id="7de4f38cff"><rect x="0" width="1036" y="0" height="322"/></clipPath></defs><path fill="#e8896a" d="M 626.039062 960.136719 C 626.039062 960.136719 574.96875 932.324219 485.386719 927.921875 C 445.929688 925.988281 398.945312 928.585938 345.53125 940.179688 C 345.53125 940.179688 57.671875 578.308594 57.671875 578.308594 C 64.941406 576.660156 76.832031 574.238281 92.324219 572.078125 C 104.765625 570.34375 119.496094 568.777344 136.007812 567.878906 C 139.035156 567.722656 141.359375 565.128906 141.199219 562.089844 C 141.027344 559.066406 138.4375 556.75 135.410156 556.910156 C 118.546875 557.824219 103.503906 559.425781 90.8125 561.195312 C 63.117188 565.0625 46.554688 569.722656 46.554688 569.722656 C 44.777344 570.222656 43.378906 571.578125 42.8125 573.320312 C 42.246094 575.074219 42.589844 576.988281 43.738281 578.433594 L 339.074219 949.695312 C 340.378906 951.339844 342.507812 952.085938 344.570312 951.636719 C 398.242188 939.675781 445.390625 936.949219 484.851562 938.894531 C 571.410156 943.148438 620.808594 969.785156 620.808594 969.785156 C 623.46875 971.238281 626.804688 970.242188 628.242188 967.570312 C 629.691406 964.910156 628.699219 961.574219 626.039062 960.136719 Z M 626.039062 960.136719 " fill-opacity="1" fill-rule="evenodd"/><path fill="#ffffff" d="M 628.664062 961.726562 C 628.664062 961.726562 597.070312 908.527344 517.984375 874.824219 C 482.960938 859.902344 438.570312 848.78125 383.402344 847.917969 C 383.402344 847.917969 188.359375 492.527344 156.214844 433.957031 C 176.757812 434.269531 229.574219 436.882812 289.007812 453.949219 C 331.328125 466.113281 377.027344 485.613281 416.757812 516.941406 C 419.140625 518.824219 422.59375 518.402344 424.476562 516.03125 C 426.34375 513.644531 425.9375 510.191406 423.566406 508.3125 C 382.648438 476.058594 335.617188 455.914062 292.042969 443.402344 C 213.816406 420.917969 146.785156 422.992188 146.785156 422.992188 C 144.867188 423.050781 143.128906 424.09375 142.179688 425.757812 C 141.234375 427.414062 141.210938 429.449219 142.132812 431.117188 L 375.324219 856.019531 C 376.273438 857.757812 378.105469 858.847656 380.082031 858.871094 C 435.011719 859.328125 479.078125 870.1875 513.679688 884.929688 C 588.957031 917.011719 619.230469 967.359375 619.230469 967.359375 C 620.789062 969.972656 624.171875 970.824219 626.769531 969.265625 C 629.371094 967.707031 630.222656 964.328125 628.664062 961.726562 Z M 628.664062 961.726562 " fill-opacity="1" fill-rule="evenodd"/><path fill="#ffffff" d="M 627.378906 960.957031 C 627.378906 960.957031 586.746094 925.902344 500.300781 909.226562 C 464.117188 902.242188 419.859375 898.472656 367.121094 901.898438 C 367.121094 901.898438 108.207031 506.867188 108.207031 506.867188 C 115.691406 506.328125 127.585938 505.742188 142.828125 505.90625 C 155.390625 506.039062 170.191406 506.683594 186.652344 508.253906 C 189.667969 508.542969 192.355469 506.328125 192.648438 503.296875 C 192.929688 500.28125 190.710938 497.605469 187.695312 497.316406 C 170.882812 495.710938 155.765625 495.058594 142.953125 494.921875 C 114.992188 494.625 97.917969 496.769531 97.917969 496.769531 C 96.039062 497 94.402344 498.199219 93.609375 499.917969 C 92.820312 501.640625 92.964844 503.648438 94.003906 505.226562 L 359.703125 910.609375 C 360.78125 912.265625 362.695312 913.210938 364.667969 913.082031 C 417.695312 909.355469 462.082031 913.039062 498.210938 920.003906 C 581.132812 936.007812 620.230469 969.296875 620.230469 969.296875 C 622.535156 971.265625 626 970.996094 627.972656 968.699219 C 629.945312 966.394531 629.683594 962.929688 627.378906 960.957031 Z M 627.378906 960.957031 " fill-opacity="1" fill-rule="evenodd"/><g transform="matrix(1, 0, 0, 1, 403, 490)"><g clip-path="url(#7de4f38cff)"><g fill="#ffffff" fill-opacity="1"><g transform="translate(0.613436, 225.490602)"><g><path d="M 134.515625 -41.671875 C 134.515625 -27.304688 128.75 -16.492188 117.21875 -9.234375 C 107.75 -3.078125 95.359375 0 80.046875 0 L 5.921875 0 L 5.921875 -5.6875 L 27 -5.6875 L 27 -147.0625 L 5.921875 -147.0625 L 5.921875 -152.75 L 78.140625 -152.75 C 90.773438 -152.75 101.988281 -149.984375 111.78125 -144.453125 C 123.300781 -138.140625 129.0625 -128.90625 129.0625 -116.75 C 129.0625 -99.382812 118.085938 -88.097656 96.140625 -82.890625 C 106.398438 -80.515625 115.320312 -75.851562 122.90625 -68.90625 C 130.644531 -61.175781 134.515625 -52.097656 134.515625 -41.671875 Z M 103.484375 -118.640625 C 103.484375 -137.585938 95.035156 -147.0625 78.140625 -147.0625 L 52.8125 -147.0625 L 52.8125 -85.25 L 78.140625 -85.25 C 87.460938 -85.25 94.175781 -87.851562 98.28125 -93.0625 C 101.75 -97.488281 103.484375 -104.753906 103.484375 -114.859375 Z M 108.21875 -44.28125 C 108.21875 -67.800781 98.191406 -79.5625 78.140625 -79.5625 L 52.8125 -79.5625 L 52.8125 -5.6875 L 78.140625 -5.6875 C 89.035156 -5.6875 96.769531 -8.445312 101.34375 -13.96875 C 105.925781 -19.5 108.21875 -27.789062 108.21875 -38.84375 Z M 108.21875 -44.28125 "/></g></g></g><g fill="#ffffff" fill-opacity="1"><g transform="translate(134.647911, 225.490602)"><g><path d="M 104.4375 -44.515625 C 104.4375 -31.890625 99.460938 -20.757812 89.515625 -11.125 C 79.566406 -1.65625 68.203125 3.078125 55.421875 3.078125 C 42.628906 3.078125 31.179688 -1.65625 21.078125 -11.125 C 10.972656 -20.757812 5.921875 -31.890625 5.921875 -44.515625 C 5.921875 -57.148438 10.972656 -68.28125 21.078125 -77.90625 C 31.179688 -87.539062 42.628906 -92.359375 55.421875 -92.359375 C 68.515625 -92.359375 79.878906 -87.539062 89.515625 -77.90625 C 99.460938 -68.125 104.4375 -56.992188 104.4375 -44.515625 Z M 76.96875 -49.5 C 76.96875 -61.175781 76.097656 -69.460938 74.359375 -74.359375 C 71.359375 -82.566406 65.046875 -86.671875 55.421875 -86.671875 C 45.628906 -86.671875 39.234375 -82.566406 36.234375 -74.359375 C 34.335938 -69.617188 33.390625 -61.332031 33.390625 -49.5 L 33.390625 -39.78125 C 33.390625 -27.78125 34.257812 -19.335938 36 -14.453125 C 39 -6.398438 45.472656 -2.375 55.421875 -2.375 C 65.359375 -2.375 71.75 -6.476562 74.59375 -14.6875 C 76.175781 -18.46875 76.96875 -26.832031 76.96875 -39.78125 Z M 76.96875 -49.5 "/></g></g></g><g fill="#ffffff" fill-opacity="1"><g transform="translate(231.739623, 225.490602)"><g><path d="M 104.4375 -44.515625 C 104.4375 -31.890625 99.460938 -20.757812 89.515625 -11.125 C 79.566406 -1.65625 68.203125 3.078125 55.421875 3.078125 C 42.628906 3.078125 31.179688 -1.65625 21.078125 -11.125 C 10.972656 -20.757812 5.921875 -31.890625 5.921875 -44.515625 C 5.921875 -57.148438 10.972656 -68.28125 21.078125 -77.90625 C 31.179688 -87.539062 42.628906 -92.359375 55.421875 -92.359375 C 68.515625 -92.359375 79.878906 -87.539062 89.515625 -77.90625 C 99.460938 -68.125 104.4375 -56.992188 104.4375 -44.515625 Z M 76.96875 -49.5 C 76.96875 -61.175781 76.097656 -69.460938 74.359375 -74.359375 C 71.359375 -82.566406 65.046875 -86.671875 55.421875 -86.671875 C 45.628906 -86.671875 39.234375 -82.566406 36.234375 -74.359375 C 34.335938 -69.617188 33.390625 -61.332031 33.390625 -49.5 L 33.390625 -39.78125 C 33.390625 -27.78125 34.257812 -19.335938 36 -14.453125 C 39 -6.398438 45.472656 -2.375 55.421875 -2.375 C 65.359375 -2.375 71.75 -6.476562 74.59375 -14.6875 C 76.175781 -18.46875 76.96875 -26.832031 76.96875 -39.78125 Z M 76.96875 -49.5 "/></g></g></g><g fill="#ffffff" fill-opacity="1"><g transform="translate(328.831336, 225.490602)"><g><path d="M 68.90625 -5.6875 L 85.015625 -5.6875 L 52.8125 -47.84375 L 49.015625 -47.84375 L 49.015625 -5.6875 L 66.3125 -5.6875 L 66.3125 0 L 6.390625 0 L 6.390625 -5.6875 L 26.046875 -5.6875 L 26.046875 -147.0625 L 6.390625 -147.0625 L 6.390625 -152.75 L 49.015625 -152.75 L 49.015625 -53.515625 L 54.46875 -53.515625 L 88.328125 -84.3125 L 69.15625 -84.3125 L 69.15625 -89.984375 L 116.984375 -89.984375 L 116.984375 -84.3125 L 97.09375 -84.3125 L 69.625 -58.96875 L 112.484375 -5.6875 L 130.015625 -5.6875 L 130.015625 0 L 68.90625 0 Z M 68.90625 -5.6875 "/></g></g></g><g fill="#ffffff" fill-opacity="1"><g transform="translate(448.657055, 225.490602)"><g><path d="M 152.75 -8.046875 C 152.75 -5.523438 148.957031 -3.078125 141.375 -0.703125 C 135.375 1.023438 129.925781 1.890625 125.03125 1.890625 C 116.976562 1.890625 111.054688 -0.238281 107.265625 -4.5 C 103.484375 -8.757812 101.195312 -14.914062 100.40625 -22.96875 C 100.25 -25.175781 100.050781 -28.253906 99.8125 -32.203125 C 99.582031 -36.148438 99.226562 -40.890625 98.75 -46.421875 C 96.539062 -66.785156 87.859375 -76.96875 72.703125 -76.96875 L 53.515625 -76.96875 L 53.515625 -5.6875 L 74.59375 -5.6875 L 74.59375 0 L 6.625 0 L 6.625 -5.6875 L 27.703125 -5.6875 L 27.703125 -147.0625 L 6.625 -147.0625 L 6.625 -152.75 L 76.484375 -152.75 C 90.066406 -152.75 101.671875 -149.828125 111.296875 -143.984375 C 122.828125 -137.191406 128.59375 -127.40625 128.59375 -114.625 C 128.59375 -95.832031 116.75 -83.832031 93.0625 -78.625 C 108.21875 -74.519531 118.164062 -68.125 122.90625 -59.4375 C 126.0625 -53.4375 127.878906 -42.226562 128.359375 -25.8125 C 128.671875 -17.914062 129.140625 -13.019531 129.765625 -11.125 C 130.878906 -7.8125 133.800781 -6.15625 138.53125 -6.15625 C 142.476562 -6.15625 145.953125 -7.179688 148.953125 -9.234375 C 150.210938 -9.546875 150.925781 -9.703125 151.09375 -9.703125 C 152.195312 -9.703125 152.75 -9.148438 152.75 -8.046875 Z M 103.25 -118.640625 C 103.25 -137.585938 94.328125 -147.0625 76.484375 -147.0625 L 53.515625 -147.0625 L 53.515625 -82.640625 L 76.484375 -82.640625 C 94.328125 -82.640625 103.25 -91.957031 103.25 -110.59375 Z M 103.25 -118.640625 "/></g></g></g><g fill="#ffffff" fill-opacity="1"><g transform="translate(590.03273, 225.490602)"><g><path d="M 98.046875 -27.703125 C 98.046875 -26.441406 97.804688 -25.257812 97.328125 -24.15625 C 90.066406 -6 75.78125 3.078125 54.46875 3.078125 C 41.050781 3.078125 29.765625 -1.5 20.609375 -10.65625 C 11.285156 -19.96875 6.625 -31.019531 6.625 -43.8125 C 6.625 -56.4375 11.285156 -67.644531 20.609375 -77.4375 C 30.078125 -87.382812 41.046875 -92.359375 53.515625 -92.359375 C 67.410156 -92.359375 78.539062 -87.382812 86.90625 -77.4375 C 93.0625 -70.019531 96.378906 -62.597656 96.859375 -55.171875 C 97.171875 -52.492188 95.515625 -51.15625 91.890625 -51.15625 L 34.34375 -51.15625 L 34.34375 -29.359375 C 34.34375 -11.367188 41.207031 -2.375 54.9375 -2.375 C 72.144531 -2.375 84.617188 -10.738281 92.359375 -27.46875 C 93.304688 -29.363281 94.410156 -30.3125 95.671875 -30.3125 C 97.253906 -30.3125 98.046875 -29.441406 98.046875 -27.703125 Z M 71.75 -66.078125 C 71.75 -79.804688 65.75 -86.671875 53.75 -86.671875 C 40.8125 -86.671875 34.34375 -79.332031 34.34375 -64.65625 L 34.34375 -56.828125 L 69.390625 -56.828125 C 70.960938 -56.828125 71.75 -59.910156 71.75 -66.078125 Z M 71.75 -66.078125 "/></g></g></g><g fill="#ffffff" fill-opacity="1"><g transform="translate(684.045891, 225.490602)"><g><path d="M 67.734375 -5.6875 L 84.78125 -5.6875 L 84.78125 -67.96875 C 84.78125 -78.382812 80.597656 -83.59375 72.234375 -83.59375 C 66.703125 -83.59375 61.253906 -80.988281 55.890625 -75.78125 C 50.523438 -70.570312 47.84375 -65.203125 47.84375 -59.671875 L 47.84375 -5.6875 L 64.890625 -5.6875 L 64.890625 0 L 7.8125 0 L 7.8125 -5.6875 L 24.859375 -5.6875 L 24.859375 -83.59375 L 7.8125 -83.59375 L 7.8125 -89.046875 L 47.84375 -89.046875 L 47.84375 -74.828125 C 55.414062 -85.566406 66.546875 -90.9375 81.234375 -90.9375 C 99.066406 -90.9375 107.984375 -83.753906 107.984375 -69.390625 L 107.984375 -5.6875 L 125.03125 -5.6875 L 125.03125 0 L 67.734375 0 Z M 67.734375 -5.6875 "/></g></g></g><g fill="#ffffff" fill-opacity="1"><g transform="translate(801.740264, 225.490602)"><g><path d="M 80.046875 -19.65625 C 80.046875 -18.394531 79.96875 -17.601562 79.8125 -17.28125 C 77.125 -3.707031 67.410156 3.078125 50.671875 3.078125 C 41.515625 3.078125 34.289062 0.710938 29 -4.015625 C 23.71875 -8.753906 21.078125 -15.625 21.078125 -24.625 L 21.078125 -84.0625 L 4.5 -84.0625 L 4.5 -89.75 L 21.078125 -89.75 L 21.078125 -114.859375 L 44.28125 -125.515625 L 44.28125 -89.75 L 67.96875 -89.75 L 67.96875 -84.0625 L 44.28125 -84.0625 L 44.28125 -24.15625 C 44.28125 -10.570312 49.175781 -3.78125 58.96875 -3.78125 C 67.488281 -3.78125 72.617188 -8.914062 74.359375 -19.1875 C 74.671875 -21.394531 75.773438 -22.5 77.671875 -22.5 C 79.253906 -22.5 80.046875 -21.550781 80.046875 -19.65625 Z M 80.046875 -19.65625 "/></g></g></g><g fill="#ffffff" fill-opacity="1"><g transform="translate(872.309015, 225.490602)"><g><path d="M 107.28125 -12.78125 C 107.28125 -7.894531 104.359375 -3.953125 98.515625 -0.953125 C 93.460938 1.730469 88.488281 3.078125 83.59375 3.078125 C 73.332031 3.078125 67.097656 -0.628906 64.890625 -8.046875 C 57.941406 -0.628906 48.785156 3.078125 37.421875 3.078125 C 19.109375 3.078125 9.953125 -3.867188 9.953125 -17.765625 C 9.953125 -29.285156 16.421875 -37.890625 29.359375 -43.578125 C 39.148438 -47.835938 50.519531 -50.046875 63.46875 -50.203125 L 63.46875 -75.546875 C 63.46875 -83.441406 58.414062 -87.390625 48.3125 -87.390625 C 38.675781 -87.390625 33.859375 -86.046875 33.859375 -83.359375 C 34.015625 -83.203125 34.25 -82.960938 34.5625 -82.640625 C 34.882812 -82.328125 35.363281 -81.9375 36 -81.46875 C 38.207031 -79.25 39.3125 -76.878906 39.3125 -74.359375 C 39.3125 -68.515625 35.914062 -65.59375 29.125 -65.59375 C 22.5 -65.59375 19.1875 -68.671875 19.1875 -74.828125 C 19.1875 -81.304688 23.6875 -86.125 32.6875 -89.28125 C 38.363281 -91.332031 45.46875 -92.359375 54 -92.359375 C 75.78125 -92.359375 86.671875 -85.332031 86.671875 -71.28125 L 86.671875 -17.53125 C 86.671875 -9 88.566406 -4.734375 92.359375 -4.734375 C 96.617188 -4.734375 100.09375 -7.335938 102.78125 -12.546875 C 103.40625 -14.128906 104.269531 -14.921875 105.375 -14.921875 C 106.644531 -14.921875 107.28125 -14.207031 107.28125 -12.78125 Z M 63.46875 -45.9375 C 58.414062 -45.625 54.070312 -45.070312 50.4375 -44.28125 C 46.8125 -43.488281 43.890625 -42.539062 41.671875 -41.4375 C 34.734375 -37.8125 31.265625 -31.8125 31.265625 -23.4375 C 31.265625 -10.96875 36.078125 -4.734375 45.703125 -4.734375 C 48.546875 -4.734375 52.175781 -6 56.59375 -8.53125 C 61.175781 -11.207031 63.46875 -13.734375 63.46875 -16.109375 Z M 63.46875 -45.9375 "/></g></g></g><g fill="#ffffff" fill-opacity="1"><g transform="translate(968.453478, 225.490602)"><g><path d="M 7.578125 -5.6875 L 24.625 -5.6875 L 24.625 -147.0625 L 7.578125 -147.0625 L 7.578125 -152.75 L 47.59375 -152.75 L 47.59375 -5.6875 L 64.65625 -5.6875 L 64.65625 0 L 7.578125 0 Z M 7.578125 -5.6875 "/></g></g></g></g></g><g fill="#e8896a" fill-opacity="1"><g transform="translate(403.613447, 801.127639)"><g><path d="M 17.78125 -28.28125 C 19.226562 -28.28125 20.597656 -28.441406 21.890625 -28.765625 C 23.191406 -29.085938 24.34375 -29.609375 25.34375 -30.328125 C 26.34375 -31.054688 27.128906 -31.984375 27.703125 -33.109375 C 28.285156 -34.234375 28.578125 -35.625 28.578125 -37.28125 C 28.578125 -40.28125 27.785156 -42.441406 26.203125 -43.765625 C 24.628906 -45.085938 22.394531 -45.75 19.5 -45.75 L 13.421875 -45.75 L 13.421875 -28.28125 Z M 31.046875 0 L 27.90625 -11.46875 C 27.445312 -13.070312 27.019531 -14.535156 26.625 -15.859375 C 26.226562 -17.179688 25.691406 -18.316406 25.015625 -19.265625 C 24.335938 -20.222656 23.4375 -20.960938 22.3125 -21.484375 C 21.1875 -22.015625 19.648438 -22.28125 17.703125 -22.28125 L 13.421875 -22.28125 L 13.421875 0 L 5.921875 0 L 5.921875 -51.75 L 20.921875 -51.75 C 23.117188 -51.75 25.144531 -51.484375 27 -50.953125 C 28.851562 -50.429688 30.453125 -49.617188 31.796875 -48.515625 C 33.148438 -47.421875 34.203125 -46.023438 34.953125 -44.328125 C 35.703125 -42.628906 36.078125 -40.578125 36.078125 -38.171875 C 36.078125 -34.671875 35.203125 -31.957031 33.453125 -30.03125 C 31.703125 -28.113281 29.175781 -26.753906 25.875 -25.953125 L 25.875 -25.796875 C 27.519531 -25.453125 28.851562 -24.941406 29.875 -24.265625 C 30.90625 -23.585938 31.734375 -22.757812 32.359375 -21.78125 C 32.984375 -20.8125 33.46875 -19.710938 33.8125 -18.484375 C 34.164062 -17.265625 34.492188 -15.90625 34.796875 -14.40625 L 37.875 0 Z M 31.046875 0 "/></g></g></g><g fill="#e8896a" fill-opacity="1"><g transform="translate(443.888406, 801.127639)"><g><path d="M 6 0 L 6 -51.75 L 34.578125 -51.75 L 34.578125 -45.75 L 13.5 -45.75 L 13.5 -29.921875 L 33.53125 -29.921875 L 33.53125 -23.921875 L 13.5 -23.921875 L 13.5 -6 L 35.25 -6 L 35.25 0 Z M 6 0 "/></g></g></g><g fill="#e8896a" fill-opacity="1"><g transform="translate(481.388369, 801.127639)"><g><path d="M 33.828125 0 L 12.90625 -41.46875 L 12.75 -41.46875 L 12.75 0 L 6 0 L 6 -51.75 L 15.375 -51.75 L 35.78125 -11.25 L 35.921875 -11.25 L 35.921875 -51.75 L 42.671875 -51.75 L 42.671875 0 Z M 33.828125 0 "/></g></g></g><g fill="#e8896a" fill-opacity="1"><g transform="translate(529.988321, 801.127639)"><g><path d="M 12.90625 0 L 12.90625 -45.75 L 0 -45.75 L 0 -51.75 L 33.296875 -51.75 L 33.296875 -45.75 L 20.40625 -45.75 L 20.40625 0 Z M 12.90625 0 "/></g></g></g><g fill="#e8896a" fill-opacity="1"><g transform="translate(563.28829, 801.127639)"><g/></g></g><g fill="#e8896a" fill-opacity="1"><g transform="translate(585.48827, 801.127639)"><g><path d="M 23.03125 -44.84375 L 22.875 -44.84375 L 15.375 -20.78125 L 30.15625 -20.78125 Z M 37.28125 0 L 32.171875 -14.78125 L 13.65625 -14.78125 L 8.625 0 L 0.671875 0 L 18.296875 -51.75 L 27.53125 -51.75 L 45.21875 0 Z M 37.28125 0 "/></g></g></g><g fill="#e8896a" fill-opacity="1"><g transform="translate(631.313225, 801.127639)"><g/></g></g><g fill="#e8896a" fill-opacity="1"><g transform="translate(653.513205, 801.127639)"><g><path d="M 19.28125 -6 C 20.675781 -6 21.984375 -6.1875 23.203125 -6.5625 C 24.429688 -6.9375 25.507812 -7.484375 26.4375 -8.203125 C 27.363281 -8.929688 28.085938 -9.84375 28.609375 -10.9375 C 29.140625 -12.039062 29.40625 -13.34375 29.40625 -14.84375 C 29.40625 -16.5 29.128906 -17.925781 28.578125 -19.125 C 28.023438 -20.320312 27.257812 -21.304688 26.28125 -22.078125 C 25.3125 -22.859375 24.160156 -23.421875 22.828125 -23.765625 C 21.503906 -24.117188 20.070312 -24.296875 18.53125 -24.296875 L 13.5 -24.296875 L 13.5 -6 Z M 18.21875 -30.296875 C 20.820312 -30.296875 22.921875 -30.882812 24.515625 -32.0625 C 26.117188 -33.238281 26.921875 -35.25 26.921875 -38.09375 C 26.921875 -39.695312 26.695312 -41 26.25 -42 C 25.800781 -43 25.175781 -43.773438 24.375 -44.328125 C 23.570312 -44.878906 22.609375 -45.253906 21.484375 -45.453125 C 20.359375 -45.648438 19.125 -45.75 17.78125 -45.75 L 13.5 -45.75 L 13.5 -30.296875 Z M 6 0 L 6 -51.75 L 20.921875 -51.75 C 22.828125 -51.75 24.601562 -51.5 26.25 -51 C 27.894531 -50.5 29.316406 -49.734375 30.515625 -48.703125 C 31.722656 -47.679688 32.675781 -46.394531 33.375 -44.84375 C 34.070312 -43.300781 34.421875 -41.503906 34.421875 -39.453125 C 34.421875 -33.597656 31.75 -29.644531 26.40625 -27.59375 L 26.40625 -27.453125 C 29.945312 -26.953125 32.582031 -25.472656 34.3125 -23.015625 C 36.039062 -20.566406 36.90625 -17.617188 36.90625 -14.171875 C 36.90625 -11.523438 36.476562 -9.285156 35.625 -7.453125 C 34.769531 -5.628906 33.601562 -4.164062 32.125 -3.0625 C 30.65625 -1.96875 28.90625 -1.179688 26.875 -0.703125 C 24.851562 -0.234375 22.671875 0 20.328125 0 Z M 6 0 "/></g></g></g><g fill="#e8896a" fill-opacity="1"><g transform="translate(693.788165, 801.127639)"><g><path d="M 23.625 -5.171875 C 26.269531 -5.171875 28.378906 -5.867188 29.953125 -7.265625 C 31.535156 -8.671875 32.75 -10.421875 33.59375 -12.515625 C 34.445312 -14.617188 35 -16.867188 35.25 -19.265625 C 35.5 -21.671875 35.625 -23.875 35.625 -25.875 C 35.625 -27.875 35.5 -30.070312 35.25 -32.46875 C 35 -34.875 34.445312 -37.125 33.59375 -39.21875 C 32.75 -41.320312 31.535156 -43.070312 29.953125 -44.46875 C 28.378906 -45.875 26.269531 -46.578125 23.625 -46.578125 C 20.976562 -46.578125 18.863281 -45.875 17.28125 -44.46875 C 15.707031 -43.070312 14.507812 -41.320312 13.6875 -39.21875 C 12.863281 -37.125 12.328125 -34.875 12.078125 -32.46875 C 11.828125 -30.070312 11.703125 -27.875 11.703125 -25.875 C 11.703125 -23.875 11.828125 -21.671875 12.078125 -19.265625 C 12.328125 -16.867188 12.863281 -14.617188 13.6875 -12.515625 C 14.507812 -10.421875 15.707031 -8.671875 17.28125 -7.265625 C 18.863281 -5.867188 20.976562 -5.171875 23.625 -5.171875 Z M 23.625 0.828125 C 19.625 0.828125 16.320312 0.0742188 13.71875 -1.421875 C 11.125 -2.921875 9.0625 -4.90625 7.53125 -7.375 C 6.007812 -9.851562 4.945312 -12.691406 4.34375 -15.890625 C 3.75 -19.097656 3.453125 -22.425781 3.453125 -25.875 C 3.453125 -29.320312 3.75 -32.644531 4.34375 -35.84375 C 4.945312 -39.050781 6 -41.890625 7.5 -44.359375 C 9 -46.835938 11.046875 -48.828125 13.640625 -50.328125 C 16.242188 -51.828125 19.570312 -52.578125 23.625 -52.578125 C 27.625 -52.578125 30.9375 -51.828125 33.5625 -50.328125 C 36.1875 -48.828125 38.257812 -46.835938 39.78125 -44.359375 C 41.3125 -41.890625 42.375 -39.050781 42.96875 -35.84375 C 43.570312 -32.644531 43.875 -29.320312 43.875 -25.875 C 43.875 -22.425781 43.570312 -19.097656 42.96875 -15.890625 C 42.375 -12.691406 41.3125 -9.851562 39.78125 -7.375 C 38.257812 -4.90625 36.1875 -2.921875 33.5625 -1.421875 C 30.9375 0.0742188 27.625 0.828125 23.625 0.828125 Z M 23.625 0.828125 "/></g></g></g><g fill="#e8896a" fill-opacity="1"><g transform="translate(741.038115, 801.127639)"><g><path d="M 23.625 -5.171875 C 26.269531 -5.171875 28.378906 -5.867188 29.953125 -7.265625 C 31.535156 -8.671875 32.75 -10.421875 33.59375 -12.515625 C 34.445312 -14.617188 35 -16.867188 35.25 -19.265625 C 35.5 -21.671875 35.625 -23.875 35.625 -25.875 C 35.625 -27.875 35.5 -30.070312 35.25 -32.46875 C 35 -34.875 34.445312 -37.125 33.59375 -39.21875 C 32.75 -41.320312 31.535156 -43.070312 29.953125 -44.46875 C 28.378906 -45.875 26.269531 -46.578125 23.625 -46.578125 C 20.976562 -46.578125 18.863281 -45.875 17.28125 -44.46875 C 15.707031 -43.070312 14.507812 -41.320312 13.6875 -39.21875 C 12.863281 -37.125 12.328125 -34.875 12.078125 -32.46875 C 11.828125 -30.070312 11.703125 -27.875 11.703125 -25.875 C 11.703125 -23.875 11.828125 -21.671875 12.078125 -19.265625 C 12.328125 -16.867188 12.863281 -14.617188 13.6875 -12.515625 C 14.507812 -10.421875 15.707031 -8.671875 17.28125 -7.265625 C 18.863281 -5.867188 20.976562 -5.171875 23.625 -5.171875 Z M 23.625 0.828125 C 19.625 0.828125 16.320312 0.0742188 13.71875 -1.421875 C 11.125 -2.921875 9.0625 -4.90625 7.53125 -7.375 C 6.007812 -9.851562 4.945312 -12.691406 4.34375 -15.890625 C 3.75 -19.097656 3.453125 -22.425781 3.453125 -25.875 C 3.453125 -29.320312 3.75 -32.644531 4.34375 -35.84375 C 4.945312 -39.050781 6 -41.890625 7.5 -44.359375 C 9 -46.835938 11.046875 -48.828125 13.640625 -50.328125 C 16.242188 -51.828125 19.570312 -52.578125 23.625 -52.578125 C 27.625 -52.578125 30.9375 -51.828125 33.5625 -50.328125 C 36.1875 -48.828125 38.257812 -46.835938 39.78125 -44.359375 C 41.3125 -41.890625 42.375 -39.050781 42.96875 -35.84375 C 43.570312 -32.644531 43.875 -29.320312 43.875 -25.875 C 43.875 -22.425781 43.570312 -19.097656 42.96875 -15.890625 C 42.375 -12.691406 41.3125 -9.851562 39.78125 -7.375 C 38.257812 -4.90625 36.1875 -2.921875 33.5625 -1.421875 C 30.9375 0.0742188 27.625 0.828125 23.625 0.828125 Z M 23.625 0.828125 "/></g></g></g><g fill="#e8896a" fill-opacity="1"><g transform="translate(788.288065, 801.127639)"><g><path d="M 32.625 0 L 13.65625 -25.125 L 13.5 -25.125 L 13.5 0 L 6 0 L 6 -51.75 L 13.5 -51.75 L 13.5 -28.71875 L 13.65625 -28.71875 L 31.203125 -51.75 L 40.203125 -51.75 L 21.21875 -27.078125 L 41.703125 0 Z M 32.625 0 "/></g></g></g><g fill="#e8896a" fill-opacity="1"><g transform="translate(829.988044, 801.127639)"><g><path d="M 4.28125 6.96875 L 5.40625 -10.34375 L 13.65625 -10.34375 L 10.5 6.96875 Z M 4.28125 6.96875 "/></g></g></g><g fill="#e8896a" fill-opacity="1"><g transform="translate(846.638006, 801.127639)"><g/></g></g><g fill="#e8896a" fill-opacity="1"><g transform="translate(868.837986, 801.127639)"><g><path d="M 12.90625 0 L 12.90625 -45.75 L 0 -45.75 L 0 -51.75 L 33.296875 -51.75 L 33.296875 -45.75 L 20.40625 -45.75 L 20.40625 0 Z M 12.90625 0 "/></g></g></g><g fill="#e8896a" fill-opacity="1"><g transform="translate(902.137955, 801.127639)"><g><path d="M 23.03125 -44.84375 L 22.875 -44.84375 L 15.375 -20.78125 L 30.15625 -20.78125 Z M 37.28125 0 L 32.171875 -14.78125 L 13.65625 -14.78125 L 8.625 0 L 0.671875 0 L 18.296875 -51.75 L 27.53125 -51.75 L 45.21875 0 Z M 37.28125 0 "/></g></g></g><g fill="#e8896a" fill-opacity="1"><g transform="translate(947.962887, 801.127639)"><g><path d="M 32.625 0 L 13.65625 -25.125 L 13.5 -25.125 L 13.5 0 L 6 0 L 6 -51.75 L 13.5 -51.75 L 13.5 -28.71875 L 13.65625 -28.71875 L 31.203125 -51.75 L 40.203125 -51.75 L 21.21875 -27.078125 L 41.703125 0 Z M 32.625 0 "/></g></g></g><g fill="#e8896a" fill-opacity="1"><g transform="translate(989.662866, 801.127639)"><g><path d="M 6 0 L 6 -51.75 L 34.578125 -51.75 L 34.578125 -45.75 L 13.5 -45.75 L 13.5 -29.921875 L 33.53125 -29.921875 L 33.53125 -23.921875 L 13.5 -23.921875 L 13.5 -6 L 35.25 -6 L 35.25 0 Z M 6 0 "/></g></g></g><g fill="#e8896a" fill-opacity="1"><g transform="translate(1027.162817, 801.127639)"><g/></g></g><g fill="#e8896a" fill-opacity="1"><g transform="translate(1049.362797, 801.127639)"><g><path d="M 23.03125 -44.84375 L 22.875 -44.84375 L 15.375 -20.78125 L 30.15625 -20.78125 Z M 37.28125 0 L 32.171875 -14.78125 L 13.65625 -14.78125 L 8.625 0 L 0.671875 0 L 18.296875 -51.75 L 27.53125 -51.75 L 45.21875 0 Z M 37.28125 0 "/></g></g></g><g fill="#e8896a" fill-opacity="1"><g transform="translate(1095.187775, 801.127639)"><g/></g></g><g fill="#e8896a" fill-opacity="1"><g transform="translate(1117.387755, 801.127639)"><g><path d="M 6 0 L 6 -51.75 L 13.5 -51.75 L 13.5 -6 L 33.375 -6 L 33.375 0 Z M 6 0 "/></g></g></g><g fill="#e8896a" fill-opacity="1"><g transform="translate(1150.687724, 801.127639)"><g><path d="M 23.625 -5.171875 C 26.269531 -5.171875 28.378906 -5.867188 29.953125 -7.265625 C 31.535156 -8.671875 32.75 -10.421875 33.59375 -12.515625 C 34.445312 -14.617188 35 -16.867188 35.25 -19.265625 C 35.5 -21.671875 35.625 -23.875 35.625 -25.875 C 35.625 -27.875 35.5 -30.070312 35.25 -32.46875 C 35 -34.875 34.445312 -37.125 33.59375 -39.21875 C 32.75 -41.320312 31.535156 -43.070312 29.953125 -44.46875 C 28.378906 -45.875 26.269531 -46.578125 23.625 -46.578125 C 20.976562 -46.578125 18.863281 -45.875 17.28125 -44.46875 C 15.707031 -43.070312 14.507812 -41.320312 13.6875 -39.21875 C 12.863281 -37.125 12.328125 -34.875 12.078125 -32.46875 C 11.828125 -30.070312 11.703125 -27.875 11.703125 -25.875 C 11.703125 -23.875 11.828125 -21.671875 12.078125 -19.265625 C 12.328125 -16.867188 12.863281 -14.617188 13.6875 -12.515625 C 14.507812 -10.421875 15.707031 -8.671875 17.28125 -7.265625 C 18.863281 -5.867188 20.976562 -5.171875 23.625 -5.171875 Z M 23.625 0.828125 C 19.625 0.828125 16.320312 0.0742188 13.71875 -1.421875 C 11.125 -2.921875 9.0625 -4.90625 7.53125 -7.375 C 6.007812 -9.851562 4.945312 -12.691406 4.34375 -15.890625 C 3.75 -19.097656 3.453125 -22.425781 3.453125 -25.875 C 3.453125 -29.320312 3.75 -32.644531 4.34375 -35.84375 C 4.945312 -39.050781 6 -41.890625 7.5 -44.359375 C 9 -46.835938 11.046875 -48.828125 13.640625 -50.328125 C 16.242188 -51.828125 19.570312 -52.578125 23.625 -52.578125 C 27.625 -52.578125 30.9375 -51.828125 33.5625 -50.328125 C 36.1875 -48.828125 38.257812 -46.835938 39.78125 -44.359375 C 41.3125 -41.890625 42.375 -39.050781 42.96875 -35.84375 C 43.570312 -32.644531 43.875 -29.320312 43.875 -25.875 C 43.875 -22.425781 43.570312 -19.097656 42.96875 -15.890625 C 42.375 -12.691406 41.3125 -9.851562 39.78125 -7.375 C 38.257812 -4.90625 36.1875 -2.921875 33.5625 -1.421875 C 30.9375 0.0742188 27.625 0.828125 23.625 0.828125 Z M 23.625 0.828125 "/></g></g></g><g fill="#e8896a" fill-opacity="1"><g transform="translate(1197.937629, 801.127639)"><g><path d="M 23.625 -5.171875 C 26.269531 -5.171875 28.378906 -5.867188 29.953125 -7.265625 C 31.535156 -8.671875 32.75 -10.421875 33.59375 -12.515625 C 34.445312 -14.617188 35 -16.867188 35.25 -19.265625 C 35.5 -21.671875 35.625 -23.875 35.625 -25.875 C 35.625 -27.875 35.5 -30.070312 35.25 -32.46875 C 35 -34.875 34.445312 -37.125 33.59375 -39.21875 C 32.75 -41.320312 31.535156 -43.070312 29.953125 -44.46875 C 28.378906 -45.875 26.269531 -46.578125 23.625 -46.578125 C 20.976562 -46.578125 18.863281 -45.875 17.28125 -44.46875 C 15.707031 -43.070312 14.507812 -41.320312 13.6875 -39.21875 C 12.863281 -37.125 12.328125 -34.875 12.078125 -32.46875 C 11.828125 -30.070312 11.703125 -27.875 11.703125 -25.875 C 11.703125 -23.875 11.828125 -21.671875 12.078125 -19.265625 C 12.328125 -16.867188 12.863281 -14.617188 13.6875 -12.515625 C 14.507812 -10.421875 15.707031 -8.671875 17.28125 -7.265625 C 18.863281 -5.867188 20.976562 -5.171875 23.625 -5.171875 Z M 23.625 0.828125 C 19.625 0.828125 16.320312 0.0742188 13.71875 -1.421875 C 11.125 -2.921875 9.0625 -4.90625 7.53125 -7.375 C 6.007812 -9.851562 4.945312 -12.691406 4.34375 -15.890625 C 3.75 -19.097656 3.453125 -22.425781 3.453125 -25.875 C 3.453125 -29.320312 3.75 -32.644531 4.34375 -35.84375 C 4.945312 -39.050781 6 -41.890625 7.5 -44.359375 C 9 -46.835938 11.046875 -48.828125 13.640625 -50.328125 C 16.242188 -51.828125 19.570312 -52.578125 23.625 -52.578125 C 27.625 -52.578125 30.9375 -51.828125 33.5625 -50.328125 C 36.1875 -48.828125 38.257812 -46.835938 39.78125 -44.359375 C 41.3125 -41.890625 42.375 -39.050781 42.96875 -35.84375 C 43.570312 -32.644531 43.875 -29.320312 43.875 -25.875 C 43.875 -22.425781 43.570312 -19.097656 42.96875 -15.890625 C 42.375 -12.691406 41.3125 -9.851562 39.78125 -7.375 C 38.257812 -4.90625 36.1875 -2.921875 33.5625 -1.421875 C 30.9375 0.0742188 27.625 0.828125 23.625 0.828125 Z M 23.625 0.828125 "/></g></g><g transform="translate(1245.187625, 801.127639)"><g><path d="M 32.625 0 L 13.65625 -25.125 L 13.5 -25.125 L 13.5 0 L 6 0 L 6 -51.75 L 13.5 -51.75 L 13.5 -28.71875 L 13.65625 -28.71875 L 31.203125 -51.75 L 40.203125 -51.75 L 21.21875 -27.078125 L 41.703125 0 Z M 32.625 0 "/></g></g></g></svg>