<svg xmlns="http://www.w3.org/2000/svg" xmlns:xlink="http://www.w3.org/1999/xlink" width="2000" zoomAndPan="magnify" viewBox="0 0 1500 1499.999933" height="2000" preserveAspectRatio="xMidYMid meet" version="1.0"><defs><g/><clipPath id="38ba9fefa4"><path d="M 0 583.402344 L 1113.75 583.402344 L 1113.75 986.902344 L 0 986.902344 Z M 0 583.402344 " clip-rule="nonzero"/></clipPath></defs><g clip-path="url(#38ba9fefa4)"><path fill="#e8896a" d="M 571.21875 969.5 C 555.03125 952.394531 539.230469 940.578125 523.667969 933.59375 C 646.902344 830.484375 704.261719 699.867188 693.738281 651.703125 C 676.5 764.355469 567.980469 893.992188 523.601562 933.566406 C 510.097656 927.519531 496.773438 925.140625 483.535156 926.15625 C 520.742188 874.628906 556.179688 669.023438 534.714844 619.8125 C 551.910156 628.402344 569.855469 642.453125 600.15625 637.597656 C 562.628906 626.554688 548.523438 615.21875 516.847656 595.0625 C 548.765625 705.082031 505.710938 868.398438 481.40625 926.351562 C 471.886719 927.34375 462.402344 930.085938 452.925781 934.492188 C 453.84375 858.320312 367.058594 646.644531 312.832031 612.621094 C 344.890625 613.007812 368.449219 606.441406 397.417969 597.558594 C 417.3125 631.933594 430.828125 672.875 441.449219 713.429688 C 437.585938 669.105469 420.59375 624.886719 404.371094 583.652344 C 361.5 596.207031 323.261719 599.679688 280.394531 599.871094 C 377.101562 684.234375 436.152344 862.417969 450.089844 935.875 C 443.9375 938.949219 437.785156 942.71875 431.625 947.152344 C 402.074219 883.773438 214.984375 737.058594 149.054688 735.230469 C 176.867188 719.28125 189.195312 703.980469 209.632812 681.613281 C 244.226562 701.121094 296.363281 748.0625 326.109375 777.605469 C 300.277344 741.390625 243.480469 691.066406 208.5625 663.789062 C 178.007812 696.378906 146.832031 718.792969 110 740.730469 C 239.316406 764.875 384.609375 894.035156 430.355469 948.078125 C 426.722656 950.746094 423.082031 953.625 419.4375 956.753906 C 297.578125 919.621094 173.214844 910.0625 26.636719 962.546875 C 42.472656 938.988281 48.265625 917.746094 48.648438 894.183594 C 117.386719 880.074219 197.335938 868.875 290.820312 873.328125 C 221.449219 858.84375 124.605469 856.527344 38.222656 879.121094 C 30.988281 922.390625 16.503906 955.988281 -0.0117188 986.882812 C 160.925781 930.539062 298.28125 930.054688 425.226562 978.769531 C 477.757812 937.832031 527.195312 937.445312 564.273438 979.929688 C 713.355469 970.402344 964.410156 964.242188 1113.496094 976.457031 C 983.667969 960.8125 731.941406 960.421875 571.21875 969.5 Z M 571.21875 969.5 " fill-opacity="1" fill-rule="evenodd"/></g><g fill="#e8896a" fill-opacity="1"><g transform="translate(637.607738, 942.732331)"><g><path d="M 102.234375 -31.6875 C 102.234375 -20.757812 97.851562 -12.535156 89.09375 -7.015625 C 81.894531 -2.335938 72.476562 0 60.84375 0 L 4.5 0 L 4.5 -4.3125 L 20.515625 -4.3125 L 20.515625 -111.78125 L 4.5 -111.78125 L 4.5 -116.09375 L 59.40625 -116.09375 C 69 -116.09375 77.515625 -113.992188 84.953125 -109.796875 C 93.710938 -104.992188 98.09375 -97.972656 98.09375 -88.734375 C 98.09375 -75.535156 89.753906 -66.957031 73.078125 -63 C 80.878906 -61.195312 87.660156 -57.65625 93.421875 -52.375 C 99.296875 -46.5 102.234375 -39.601562 102.234375 -31.6875 Z M 78.65625 -90.1875 C 78.65625 -104.582031 72.238281 -111.78125 59.40625 -111.78125 L 40.140625 -111.78125 L 40.140625 -64.796875 L 59.40625 -64.796875 C 66.476562 -64.796875 71.578125 -66.773438 74.703125 -70.734375 C 77.335938 -74.097656 78.65625 -79.617188 78.65625 -87.296875 Z M 82.265625 -33.65625 C 82.265625 -51.539062 74.644531 -60.484375 59.40625 -60.484375 L 40.140625 -60.484375 L 40.140625 -4.3125 L 59.40625 -4.3125 C 67.675781 -4.3125 73.550781 -6.410156 77.03125 -10.609375 C 80.519531 -14.816406 82.265625 -21.117188 82.265625 -29.515625 Z M 82.265625 -33.65625 "/></g></g></g><g fill="#e8896a" fill-opacity="1"><g transform="translate(748.487738, 942.732331)"><g><path d="M 79.375 -33.84375 C 79.375 -24.238281 75.597656 -15.773438 68.046875 -8.453125 C 60.484375 -1.253906 51.84375 2.34375 42.125 2.34375 C 32.40625 2.34375 23.703125 -1.253906 16.015625 -8.453125 C 8.335938 -15.773438 4.5 -24.238281 4.5 -33.84375 C 4.5 -43.4375 8.335938 -51.894531 16.015625 -59.21875 C 23.703125 -66.539062 32.40625 -70.203125 42.125 -70.203125 C 52.082031 -70.203125 60.722656 -66.539062 68.046875 -59.21875 C 75.597656 -51.78125 79.375 -43.320312 79.375 -33.84375 Z M 58.5 -37.625 C 58.5 -46.5 57.835938 -52.796875 56.515625 -56.515625 C 54.234375 -62.753906 49.4375 -65.875 42.125 -65.875 C 34.675781 -65.875 29.816406 -62.753906 27.546875 -56.515625 C 26.097656 -52.921875 25.375 -46.625 25.375 -37.625 L 25.375 -30.234375 C 25.375 -21.117188 26.035156 -14.703125 27.359375 -10.984375 C 29.640625 -4.859375 34.5625 -1.796875 42.125 -1.796875 C 49.675781 -1.796875 54.535156 -4.914062 56.703125 -11.15625 C 57.898438 -14.039062 58.5 -20.398438 58.5 -30.234375 Z M 58.5 -37.625 "/></g></g></g><g fill="#e8896a" fill-opacity="1"><g transform="translate(831.287737, 942.732331)"><g><path d="M 79.375 -33.84375 C 79.375 -24.238281 75.597656 -15.773438 68.046875 -8.453125 C 60.484375 -1.253906 51.84375 2.34375 42.125 2.34375 C 32.40625 2.34375 23.703125 -1.253906 16.015625 -8.453125 C 8.335938 -15.773438 4.5 -24.238281 4.5 -33.84375 C 4.5 -43.4375 8.335938 -51.894531 16.015625 -59.21875 C 23.703125 -66.539062 32.40625 -70.203125 42.125 -70.203125 C 52.082031 -70.203125 60.722656 -66.539062 68.046875 -59.21875 C 75.597656 -51.78125 79.375 -43.320312 79.375 -33.84375 Z M 58.5 -37.625 C 58.5 -46.5 57.835938 -52.796875 56.515625 -56.515625 C 54.234375 -62.753906 49.4375 -65.875 42.125 -65.875 C 34.675781 -65.875 29.816406 -62.753906 27.546875 -56.515625 C 26.097656 -52.921875 25.375 -46.625 25.375 -37.625 L 25.375 -30.234375 C 25.375 -21.117188 26.035156 -14.703125 27.359375 -10.984375 C 29.640625 -4.859375 34.5625 -1.796875 42.125 -1.796875 C 49.675781 -1.796875 54.535156 -4.914062 56.703125 -11.15625 C 57.898438 -14.039062 58.5 -20.398438 58.5 -30.234375 Z M 58.5 -37.625 "/></g></g><g transform="translate(914.08773, 942.732331)"><g><path d="M 52.375 -4.3125 L 64.625 -4.3125 L 40.140625 -36.359375 L 37.265625 -36.359375 L 37.265625 -4.3125 L 50.40625 -4.3125 L 50.40625 0 L 4.859375 0 L 4.859375 -4.3125 L 19.796875 -4.3125 L 19.796875 -111.78125 L 4.859375 -111.78125 L 4.859375 -116.09375 L 37.265625 -116.09375 L 37.265625 -40.6875 L 41.40625 -40.6875 L 67.140625 -64.078125 L 52.5625 -64.078125 L 52.5625 -68.40625 L 88.921875 -68.40625 L 88.921875 -64.078125 L 73.796875 -64.078125 L 52.921875 -44.8125 L 85.5 -4.3125 L 98.8125 -4.3125 L 98.8125 0 L 52.375 0 Z M 52.375 -4.3125 "/></g></g><g transform="translate(1014.167722, 942.732331)"><g><path d="M 116.09375 -6.125 C 116.09375 -4.195312 113.210938 -2.335938 107.453125 -0.546875 C 102.898438 0.773438 98.765625 1.4375 95.046875 1.4375 C 88.921875 1.4375 84.414062 -0.179688 81.53125 -3.421875 C 78.65625 -6.660156 76.914062 -11.335938 76.3125 -17.453125 C 76.195312 -19.140625 76.046875 -21.484375 75.859375 -24.484375 C 75.679688 -27.484375 75.414062 -31.082031 75.0625 -35.28125 C 73.382812 -50.757812 66.785156 -58.5 55.265625 -58.5 L 40.6875 -58.5 L 40.6875 -4.3125 L 56.703125 -4.3125 L 56.703125 0 L 5.046875 0 L 5.046875 -4.3125 L 21.0625 -4.3125 L 21.0625 -111.78125 L 5.046875 -111.78125 L 5.046875 -116.09375 L 58.140625 -116.09375 C 68.460938 -116.09375 77.28125 -113.875 84.59375 -109.4375 C 93.351562 -104.28125 97.734375 -96.84375 97.734375 -87.125 C 97.734375 -72.84375 88.734375 -63.722656 70.734375 -59.765625 C 82.253906 -56.640625 89.816406 -51.78125 93.421875 -45.1875 C 95.816406 -40.625 97.195312 -32.101562 97.5625 -19.625 C 97.800781 -13.625 98.160156 -9.898438 98.640625 -8.453125 C 99.484375 -5.941406 101.703125 -4.6875 105.296875 -4.6875 C 108.296875 -4.6875 110.9375 -5.460938 113.21875 -7.015625 C 114.175781 -7.253906 114.71875 -7.375 114.84375 -7.375 C 115.675781 -7.375 116.09375 -6.957031 116.09375 -6.125 Z M 78.484375 -90.1875 C 78.484375 -104.582031 71.703125 -111.78125 58.140625 -111.78125 L 40.6875 -111.78125 L 40.6875 -62.8125 L 58.140625 -62.8125 C 71.703125 -62.8125 78.484375 -69.894531 78.484375 -84.0625 Z M 78.484375 -90.1875 "/></g></g></g><g fill="#e8896a" fill-opacity="1"><g transform="translate(1130.627734, 942.732331)"><g><path d="M 74.515625 -21.0625 C 74.515625 -20.101562 74.335938 -19.203125 73.984375 -18.359375 C 68.460938 -4.554688 57.601562 2.34375 41.40625 2.34375 C 31.195312 2.34375 22.613281 -1.132812 15.65625 -8.09375 C 8.582031 -15.175781 5.046875 -23.578125 5.046875 -33.296875 C 5.046875 -42.898438 8.582031 -51.421875 15.65625 -58.859375 C 22.851562 -66.421875 31.195312 -70.203125 40.6875 -70.203125 C 51.238281 -70.203125 59.695312 -66.421875 66.0625 -58.859375 C 70.738281 -53.222656 73.257812 -47.582031 73.625 -41.9375 C 73.863281 -39.894531 72.601562 -38.875 69.84375 -38.875 L 26.09375 -38.875 L 26.09375 -22.3125 C 26.09375 -8.632812 31.316406 -1.796875 41.765625 -1.796875 C 54.835938 -1.796875 64.316406 -8.15625 70.203125 -20.875 C 70.921875 -22.320312 71.757812 -23.046875 72.71875 -23.046875 C 73.914062 -23.046875 74.515625 -22.382812 74.515625 -21.0625 Z M 54.546875 -50.21875 C 54.546875 -60.65625 49.984375 -65.875 40.859375 -65.875 C 31.015625 -65.875 26.09375 -60.296875 26.09375 -49.140625 L 26.09375 -43.203125 L 52.734375 -43.203125 C 53.941406 -43.203125 54.546875 -45.539062 54.546875 -50.21875 Z M 54.546875 -50.21875 "/></g></g></g><g fill="#e8896a" fill-opacity="1"><g transform="translate(1211.087703, 942.732331)"><g><path d="M 51.484375 -4.3125 L 64.4375 -4.3125 L 64.4375 -51.65625 C 64.4375 -59.582031 61.257812 -63.546875 54.90625 -63.546875 C 50.695312 -63.546875 46.554688 -61.5625 42.484375 -57.59375 C 38.398438 -53.632812 36.359375 -49.554688 36.359375 -45.359375 L 36.359375 -4.3125 L 49.3125 -4.3125 L 49.3125 0 L 5.9375 0 L 5.9375 -4.3125 L 18.90625 -4.3125 L 18.90625 -63.546875 L 5.9375 -63.546875 L 5.9375 -67.6875 L 36.359375 -67.6875 L 36.359375 -56.875 C 42.117188 -65.039062 50.578125 -69.125 61.734375 -69.125 C 75.296875 -69.125 82.078125 -63.660156 82.078125 -52.734375 L 82.078125 -4.3125 L 95.046875 -4.3125 L 95.046875 0 L 51.484375 0 Z M 51.484375 -4.3125 "/></g></g></g><g fill="#e8896a" fill-opacity="1"><g transform="translate(1309.547717, 942.732331)"><g><path d="M 60.84375 -14.9375 C 60.84375 -13.976562 60.78125 -13.378906 60.65625 -13.140625 C 58.613281 -2.816406 51.234375 2.34375 38.515625 2.34375 C 31.554688 2.34375 26.066406 0.542969 22.046875 -3.046875 C 18.023438 -6.648438 16.015625 -11.875 16.015625 -18.71875 L 16.015625 -63.90625 L 3.421875 -63.90625 L 3.421875 -68.21875 L 16.015625 -68.21875 L 16.015625 -87.296875 L 33.65625 -95.40625 L 33.65625 -68.21875 L 51.65625 -68.21875 L 51.65625 -63.90625 L 33.65625 -63.90625 L 33.65625 -18.359375 C 33.65625 -8.035156 37.375 -2.875 44.8125 -2.875 C 51.300781 -2.875 55.203125 -6.773438 56.515625 -14.578125 C 56.753906 -16.253906 57.597656 -17.09375 59.046875 -17.09375 C 60.242188 -17.09375 60.84375 -16.375 60.84375 -14.9375 Z M 60.84375 -14.9375 "/></g></g></g><g fill="#e8896a" fill-opacity="1"><g transform="translate(1372.187726, 942.732331)"><g><path d="M 81.546875 -9.71875 C 81.546875 -6 79.320312 -3 74.875 -0.71875 C 71.039062 1.320312 67.265625 2.34375 63.546875 2.34375 C 55.742188 2.34375 51 -0.476562 49.3125 -6.125 C 44.039062 -0.476562 37.082031 2.34375 28.4375 2.34375 C 14.519531 2.34375 7.5625 -2.9375 7.5625 -13.5 C 7.5625 -22.257812 12.476562 -28.800781 22.3125 -33.125 C 29.757812 -36.363281 38.398438 -38.039062 48.234375 -38.15625 L 48.234375 -57.421875 C 48.234375 -63.421875 44.394531 -66.421875 36.71875 -66.421875 C 29.394531 -66.421875 25.734375 -65.398438 25.734375 -63.359375 C 25.859375 -63.242188 26.039062 -63.0625 26.28125 -62.8125 C 26.519531 -62.570312 26.878906 -62.273438 27.359375 -61.921875 C 29.035156 -60.242188 29.875 -58.441406 29.875 -56.515625 C 29.875 -52.078125 27.296875 -49.859375 22.140625 -49.859375 C 17.097656 -49.859375 14.578125 -52.195312 14.578125 -56.875 C 14.578125 -61.800781 18 -65.460938 24.84375 -67.859375 C 29.15625 -69.421875 34.554688 -70.203125 41.046875 -70.203125 C 57.597656 -70.203125 65.875 -64.863281 65.875 -54.1875 L 65.875 -13.3125 C 65.875 -6.832031 67.316406 -3.59375 70.203125 -3.59375 C 73.441406 -3.59375 76.082031 -5.578125 78.125 -9.546875 C 78.601562 -10.742188 79.257812 -11.34375 80.09375 -11.34375 C 81.0625 -11.34375 81.546875 -10.800781 81.546875 -9.71875 Z M 48.234375 -34.921875 C 44.398438 -34.679688 41.101562 -34.257812 38.34375 -33.65625 C 35.582031 -33.0625 33.363281 -32.34375 31.6875 -31.5 C 26.40625 -28.738281 23.765625 -24.175781 23.765625 -17.8125 C 23.765625 -8.332031 27.421875 -3.59375 34.734375 -3.59375 C 36.898438 -3.59375 39.660156 -4.554688 43.015625 -6.484375 C 46.492188 -8.523438 48.234375 -10.441406 48.234375 -12.234375 Z M 48.234375 -34.921875 "/></g></g></g><g fill="#e8896a" fill-opacity="1"><g transform="translate(1454.267675, 942.732331)"><g><path d="M 5.765625 -4.3125 L 18.71875 -4.3125 L 18.71875 -111.78125 L 5.765625 -111.78125 L 5.765625 -116.09375 L 36.1875 -116.09375 L 36.1875 -4.3125 L 49.140625 -4.3125 L 49.140625 0 L 5.765625 0 Z M 5.765625 -4.3125 "/></g></g></g></svg>